{"title":"Dear John 2010 DVDRIP - ZEUS","uid":5500081,"size":734162135,"categoryP":"video","categoryS":"movies","magnet":"?xt=urn:btih:c2460ee3a6cb3631f7ba049e26076966f1a70fa0&amp;dn=Dear+John+2010+DVDRIP+-+ZEUS&amp;tr=udp%3A%2F%2Ftracker.openbittorrent.com%3A80&amp;tr=udp%3A%2F%2Fopen.demonii.com%3A1337&amp;tr=udp%3A%2F%2Ftracker.coppersurfer.tk%3A6969&amp;tr=udp%3A%2F%2Fexodus.desync.com%3A6969","seeders":0,"leechers":1,"uploader":"Zorrow29","files":-1,"time":1271489110,"description":"Channing Tatum ... John Tyree\nAmanda Seyfried ... Savannah Curtis\nRichard Jenkins ... Mr. Tyree\nHenry Thomas ... Tim Wheddon\nD.J. Cotrona ... Noodles\nCullen Moss ... Rooster (Dan Rooney)\n\n\nWhile John is on leave in his hometown, he finds Savannah, a college student visiting the town. Although love was unexpected, it doesn't mean they didn't find it. With the knowledge of John having to leave for the army, their love still lives, until his re-signs on due to the 9/11 attack. Troubles invade and their love put on hold. One cannot bear it anymore; can the other?\n\n\nFormat: AVI\nFormat/Info: Audio Video Interleave\nFile size: 700 MiB\nDuration: 1h 47mn\nOverall bit rate: 909 Kbps\n\nVideo\nID: 0\nFormat: MPEG-4 Visual\nFormat profile: Advanced Simple@L5\nFormat settings, BVOP: Yes\nFormat settings, QPel: No\nFormat settings, GMC: No warppoints\nFormat settings, Matrix: Custom\nCodec ID: XVID\nCodec ID/Hint: XviD\nDuration: 1h 47mn\nBit rate: 774 Kbps\nWidth: 608 pixels\nHeight: 256 pixels\nDisplay aspect ratio: 2.35:1\nFrame rate: 23.976 fps\nResolution: 8 bits\nColorimetry: 4:2:0\nScan type: Progressive\nBits/(Pixel*Frame): 0.207\nStream size: 596 MiB (85%)\nWriting library: XviD 1.2.1 (UTC 2008-12-04)\n\nAudio\nID: 1\nFormat: MPEG Audio\nFormat version: Version 1\nFormat profile: Layer 3\nMode: Joint stereo\nCodec ID: 55\nCodec ID/Hint: MP3\nDuration: 1h 47mn\nBit rate mode: Constant\nBit rate: 128 Kbps\nChannel(s): 2 channels\nSampling rate: 48.0 KHz\nStream size: 98.6 MiB (14%)\nAlignment: Aligned on interleaves\nInterleave, duration: 83 ms (2.00 video frames)\nInterleave, preload duration: 504 ms\nWriting library: LAME3.98r\nEncoding settings: -m j -V 4 -q 2 -lowpass 17 -b 128\nLanguage: English","torrent":{"xt":"urn:btih:c2460ee3a6cb3631f7ba049e26076966f1a70fa0","amp;dn":"Dear+John+2010+DVDRIP+-+ZEUS","amp;tr":["udp%3A%2F%2Ftracker.openbittorrent.com%3A80","udp%3A%2F%2Fopen.demonii.com%3A1337","udp%3A%2F%2Ftracker.coppersurfer.tk%3A6969","udp%3A%2F%2Fexodus.desync.com%3A6969"],"infoHash":"c2460ee3a6cb3631f7ba049e26076966f1a70fa0","infoHashBuffer":{"type":"Buffer","data":[194,70,14,227,166,203,54,49,247,186,4,158,38,7,105,102,241,167,15,160]},"announce":[],"urlList":[]}}